<?xml version="1.0" encoding="utf-8"?>
<!-- Generator: Adobe Illustrator 18.0.0, SVG Export Plug-In . SVG Version: 6.00 Build 0)  -->
<!DOCTYPE svg PUBLIC "-//W3C//DTD SVG 1.1//EN" "http://www.w3.org/Graphics/SVG/1.1/DTD/svg11.dtd">
<svg version="1.1" id="图层_1" xmlns="http://www.w3.org/2000/svg" xmlns:xlink="http://www.w3.org/1999/xlink" x="0px" y="0px"
	 viewBox="0 0 60 60" enable-background="new 0 0 60 60" xml:space="preserve">
     <g id="test">
<path fill="#8D9199" d="M30.1,3.8C15.6,3.8,3.9,15.5,3.9,30c0,14.5,11.8,26.2,26.2,26.2c14.5,0,26.2-11.8,26.2-26.2
	C56.3,15.5,44.6,3.8,30.1,3.8z M46.5,32.8c0,0.1-0.5,4.6-5,7.1c-0.2,0.1,3.3-2.1,3.3-6.1c0-0.5-0.1-6.1-7.2-11.2l-7.4,19.4
	c-1,2.6-4.3,4.1-7.9,4.3c0,0-7.9,0.2-8.6-5.9c-0.2-1.5,0.8-3.5,2.2-4.5c1.6-1.3,4.1-2.1,6.3-2c0,0,4.7-0.3,7.5,3.3l8.5-22.2
	c0.2-0.6,0.8-1.1,1.3-1.1c0.1,0,0.2,0,0.3,0c0.2,0.1,0.4,0.3,0.5,0.6c0.1,0.4,0.1,0.8-0.1,1.2c0,0-0.2,0.7-0.2,1.2
	c-0.1,1.3,0.6,3.4,2.9,6.1C43,23,46.9,27.7,46.5,32.8z"/>
</g>
</svg>
