<?xml version="1.0" encoding="utf-8"?>
<!-- Generator: Adobe Illustrator 18.0.0, SVG Export Plug-In . SVG Version: 6.00 Build 0)  -->
<!DOCTYPE svg PUBLIC "-//W3C//DTD SVG 1.1//EN" "http://www.w3.org/Graphics/SVG/1.1/DTD/svg11.dtd">
<svg version="1.1" id="图层_1" xmlns="http://www.w3.org/2000/svg" xmlns:xlink="http://www.w3.org/1999/xlink" x="0px" y="0px"
	 viewBox="0 0 60 60" enable-background="new 0 0 60 60" xml:space="preserve">
<g>
	<path fill="#8D9199" d="M30,25.9c0,2.1-1.7,3.8-3.8,3.8H10.9c-2.1,0-3.8-1.7-3.8-3.8V10.6c0-2.1,1.7-3.8,3.8-3.8h15.3
		c2.1,0,3.8,1.7,3.8,3.8V25.9z"/>
	<path fill="#8D9199" d="M33.8,10.6v19.1c0,2.1-1.7,3.8-3.8,3.8H10.9c-2.1,0-3.8,1.7-3.8,3.8v11.5c0,2.1,1.7,3.8,3.8,3.8h38.2
		c2.1,0,3.8-1.7,3.8-3.8V10.6c0-2.1-1.7-3.8-3.8-3.8H37.6C35.5,6.8,33.8,8.5,33.8,10.6z M45.3,41.2c0,2.1-1.7,3.8-3.8,3.8H26.2v5.2
		c0,1-1.1,1.5-1.9,0.9L15.8,44c-0.6-0.5-0.6-1.3,0-1.8l8.5-7.1c0.7-0.6,1.9-0.1,1.9,0.9v5.2h13.3c1.1,0,1.9-0.9,1.9-1.9v-23
		c0-1,0.8-1.9,1.8-1.9h0.1c1,0,1.9,0.8,1.9,1.9V41.2z"/>
</g>
</svg>
