<?xml version="1.0" encoding="utf-8"?>
<!-- Generator: Adobe Illustrator 18.0.0, SVG Export Plug-In . SVG Version: 6.00 Build 0)  -->
<!DOCTYPE svg PUBLIC "-//W3C//DTD SVG 1.1//EN" "http://www.w3.org/Graphics/SVG/1.1/DTD/svg11.dtd">
<svg version="1.1" id="图层_1" xmlns="http://www.w3.org/2000/svg" xmlns:xlink="http://www.w3.org/1999/xlink" x="0px" y="0px"
	 viewBox="0 0 60 60" enable-background="new 0 0 60 60" xml:space="preserve">
<g>
	<g>
		<path fill="#8D9199" d="M42.8,50.8H9.4c-2.7,0-4.9-2.2-4.9-4.9V20c0-1,0.8-1.8,1.8-1.8S8.2,19,8.2,20v25.9c0,0.7,0.5,1.2,1.2,1.2
			h33.3c1,0,1.8,0.8,1.8,1.8S43.8,50.8,42.8,50.8z"/>
	</g>
	<g>
		<path fill="#8D9199" d="M50.6,7.2H16.7c-2.7,0-4.9,2.2-4.9,4.9v26.6c0,2.7,2.2,4.9,4.9,4.9h33.9c2.7,0,4.9-2.2,4.9-4.9V12.1
			C55.4,9.4,53.2,7.2,50.6,7.2z M48.3,26.4c0,1-1.2,1.5-1.9,0.8L42.2,23L29.5,35.7c-0.4,0.4-0.8,0.5-1.3,0.5c-0.5,0-0.9-0.2-1.3-0.5
			c-0.7-0.7-0.7-1.9,0-2.6l12.7-12.7l-4.1-4c-0.7-0.7-0.2-1.9,0.8-1.9h10.9c0.6,0,1.1,0.5,1.1,1.1V26.4z"/>
	</g>
</g>
</svg>
