<?xml version="1.0" encoding="utf-8"?>
<!-- Generator: Adobe Illustrator 18.0.0, SVG Export Plug-In . SVG Version: 6.00 Build 0)  -->
<!DOCTYPE svg PUBLIC "-//W3C//DTD SVG 1.1//EN" "http://www.w3.org/Graphics/SVG/1.1/DTD/svg11.dtd">
<svg version="1.1" id="图层_1" xmlns="http://www.w3.org/2000/svg" xmlns:xlink="http://www.w3.org/1999/xlink" x="0px" y="0px"
	 viewBox="0 0 60 60" enable-background="new 0 0 60 60" xml:space="preserve">
<path fill="#8D9199" d="M49.2,21.1c0-5.5,3.7-9.2,3.7-9.2c0-0.5-0.1-1-0.3-1.4c-0.2-0.4-0.5-0.8-0.8-1.2c-0.3-0.3-0.7-0.6-1.2-0.8
	c-0.4-0.2-0.9-0.3-1.4-0.3c0,0-3.5,3.7-9.2,3.7s-5.5-3.7-9.2-3.7s-3.8,3.7-9.2,3.7s-9.2-3.7-9.2-3.7c-0.5,0-1,0.1-1.4,0.3
	S10.1,9,9.8,9.3C9.4,9.6,9.1,10,9,10.5c-0.2,0.4-0.3,0.9-0.3,1.4c0,0,3.7,3.8,3.7,9.2s-3.7,5.5-3.7,9.2s3.7,3.7,3.7,9.2
	s-3.7,9.2-3.7,9.2c0,0.5,0.1,1,0.3,1.4c0.2,0.4,0.5,0.8,0.8,1.2c0.3,0.3,0.7,0.6,1.2,0.8c0.4,0.2,0.9,0.3,1.4,0.3
	c0,0,3.9-3.7,9.2-3.7s5.5,3.7,9.2,3.7s3.6-3.7,9.2-3.7s9.2,3.7,9.2,3.7c0.5,0,1-0.1,1.4-0.3c0.4-0.2,0.8-0.5,1.2-0.8
	c0.3-0.3,0.6-0.7,0.8-1.2c0.2-0.4,0.3-0.9,0.3-1.4c0,0-3.7-3.7-3.7-9.2c0-5.5,3.7-5.5,3.7-9.2S49.2,26.6,49.2,21.1z M41.9,39.9
	c0,1.7-1.4,3.6-3.5,4.5c-2.6,1.2-6.1,0.7-7-1.3c-0.9-2,0.4-4.4,3-5.6c1.6-0.7,4.5-0.7,4.5-0.6V25.7l-11-1.3v9.6c0,1.7-2,3.6-4,4.5
	c-2.6,1.2-6.4,0.7-7.3-1.3c-0.9-2-0.1-4.4,2.5-5.6c1.6-0.7,3.7-0.8,4.4-0.6l-0.1-12.2c0-1.1,0.7-2,1.8-1.8l14.9,1.6
	c1,0.1,1.7,0.9,1.7,1.9L41.9,39.9z"/>
</svg>
