<?xml version="1.0" encoding="utf-8"?>
<!-- Generator: Adobe Illustrator 18.0.0, SVG Export Plug-In . SVG Version: 6.00 Build 0)  -->
<!DOCTYPE svg PUBLIC "-//W3C//DTD SVG 1.1//EN" "http://www.w3.org/Graphics/SVG/1.1/DTD/svg11.dtd">
<svg version="1.1" id="图层_1" xmlns="http://www.w3.org/2000/svg" xmlns:xlink="http://www.w3.org/1999/xlink" x="0px" y="0px"
	 viewBox="0 0 60 60" enable-background="new 0 0 60 60" xml:space="preserve">
<path fill="#8D9199" d="M30,3.9C15.6,3.9,3.9,15.6,3.9,30S15.6,56,30,56S56.1,44.3,56.1,30S44.4,3.9,30,3.9z M12.8,19.4
	c0-0.5,0.5-0.9,1.1-0.9H26c0.6,0,1.1,0.4,1.1,0.9V32c0,0.5-0.5,0.9-1.1,0.9H13.9c-0.6,0-1.1-0.4-1.1-0.9V19.4z M47.2,40.5
	c0,0.5-0.5,0.9-1,0.9H13.9c-0.6,0-1-0.4-1-0.9v-4c0-0.5,0.5-0.9,1-0.9h32.3c0.6,0,1,0.4,1,0.9V40.5z M47.2,32c0,0.5-0.5,0.9-1,0.9
	H31c-0.6,0-1-0.4-1-0.9v-4c0-0.5,0.5-0.9,1-0.9h15.1c0.6,0,1,0.4,1,0.9V32z M47.2,23.4c0,0.5-0.5,0.9-1,0.9H31c-0.6,0-1-0.4-1-0.9
	v-4c0-0.5,0.5-0.9,1-0.9h15.1c0.6,0,1,0.4,1,0.9V23.4z"/>
</svg>
