<?xml version="1.0" encoding="utf-8"?>
<!-- Generator: Adobe Illustrator 18.0.0, SVG Export Plug-In . SVG Version: 6.00 Build 0)  -->
<!DOCTYPE svg PUBLIC "-//W3C//DTD SVG 1.1//EN" "http://www.w3.org/Graphics/SVG/1.1/DTD/svg11.dtd">
<svg version="1.1" id="图层_1" xmlns="http://www.w3.org/2000/svg" xmlns:xlink="http://www.w3.org/1999/xlink" x="0px" y="0px"
	 viewBox="0 0 60 60" enable-background="new 0 0 60 60" xml:space="preserve">
<path fill="#8D9199" d="M51.7,11.7c0-2-1.7-3.7-3.9-3.7H11.9C9.7,8,8,9.7,8,11.7v37c0,2,1.7,3.7,3.9,3.7h35.9c2.2,0,3.9-1.7,3.9-3.7
	V11.7z M45.4,11h3.2v3h-3.2V11z M39.2,11h3.2v2.9h-3.2V11z M33,11h3.2v3H33V11z M48.6,49.5H11.1V16.9h37.5V49.5z"/>
<path fill="#8D9199" d="M46,28.4c0,0.3-0.3,0.6-0.6,0.6H13.6c-0.3,0-0.6-0.3-0.6-0.6v-7.8c0-0.3,0.3-0.6,0.6-0.6h31.8
	c0.3,0,0.6,0.3,0.6,0.6V28.4z"/>
<rect x="42.3" y="31.7" fill="#8D9199" width="3.1" height="3"/>
<rect x="13" y="31.7" fill="#8D9199" width="28" height="3"/>
<rect x="13" y="37.6" fill="#8D9199" width="28" height="3"/>
<rect x="13" y="43.6" fill="#8D9199" width="28" height="3"/>
<rect x="42.3" y="37.6" fill="#8D9199" width="3.1" height="3"/>
<rect x="42.3" y="43.6" fill="#8D9199" width="3.1" height="3"/>
</svg>
