<?xml version="1.0" encoding="utf-8"?>
<!-- Generator: Adobe Illustrator 18.0.0, SVG Export Plug-In . SVG Version: 6.00 Build 0)  -->
<!DOCTYPE svg PUBLIC "-//W3C//DTD SVG 1.1//EN" "http://www.w3.org/Graphics/SVG/1.1/DTD/svg11.dtd">
<svg version="1.1" id="图层_1" xmlns="http://www.w3.org/2000/svg" xmlns:xlink="http://www.w3.org/1999/xlink" x="0px" y="0px"
	 viewBox="0 0 60 60" enable-background="new 0 0 60 60" xml:space="preserve">
<g>
	<path fill="#8D9199" d="M27,9h24.7c2,0,3.7,1.7,3.7,3.7V30c0,2-1.7,3.7-3.7,3.7H48l0,7.4l-7.4-7.4H27c-2,0-3.7-1.7-3.7-3.7V12.7
		C23.3,10.7,24.9,9,27,9z"/>
	<path fill="#8D9199" d="M21,30v-9H9.7c-2,0-3.7,2-3.7,4v17.3c0,2,1.7,3.7,3.7,3.7h3.7l0,7.4l7.4-7.4h13.6c2,0,3.6-1.6,3.6-3.7V36
		H27C23.6,36,21,33.4,21,30z"/>
</g>
</svg>
